<?xml version="1.0" standalone="no"?>
<!DOCTYPE svg PUBLIC "-//W3C//DTD SVG 20010904//EN"
 "http://www.w3.org/TR/2001/REC-SVG-20010904/DTD/svg10.dtd">
<svg version="1.0" xmlns="http://www.w3.org/2000/svg"
 width="740.000000pt" height="740.000000pt" viewBox="0 0 740.000000 740.000000"
 preserveAspectRatio="xMidYMid meet">

<g transform="translate(0.000000,740.000000) scale(0.100000,-0.100000)"
fill="#000000" stroke="none">
<path d="M3827 6570 c-44 -34 -112 -191 -141 -323 -6 -24 -9 -26 -26 -17 -14
7 -26 8 -39 0 -27 -14 -69 -104 -85 -181 -11 -57 -15 -64 -37 -65 -13 0 -29
-1 -35 -2 -28 -5 -84 -159 -84 -231 0 -29 -2 -31 -25 -25 -14 3 -32 1 -40 -6
-23 -19 -54 -115 -61 -190 -7 -68 -7 -69 -38 -72 -46 -4 -68 -56 -74 -174 -5
-90 -6 -94 -28 -94 -52 0 -74 -59 -74 -196 0 -91 0 -91 -24 -87 -19 4 -28 -1
-40 -25 -20 -39 -30 -154 -18 -214 9 -48 9 -48 -18 -48 -42 0 -53 -39 -48
-157 3 -54 8 -106 12 -115 6 -12 2 -17 -15 -20 -13 -2 -29 -14 -36 -28 -17
-34 -16 -136 2 -196 20 -65 19 -74 -6 -74 -12 0 -23 -8 -26 -20 -3 -11 -8 -20
-12 -20 -3 0 -22 28 -41 61 -55 97 -143 165 -165 129 -11 -18 -23 -10 -48 33
-34 57 -122 145 -154 153 -15 4 -35 2 -47 -6 -18 -11 -22 -10 -35 11 -30 47
-123 138 -157 154 -33 15 -37 15 -60 0 -24 -15 -25 -15 -52 17 -92 111 -183
163 -221 126 -10 -11 -14 -9 -23 7 -41 73 -234 225 -305 240 -43 9 -99 -19
-120 -58 -12 -24 -14 -49 -10 -112 9 -115 37 -210 94 -316 2 -4 -8 -9 -22 -13
-22 -6 -25 -12 -25 -51 0 -50 31 -140 67 -198 14 -22 23 -40 21 -40 -38 -19
-43 -27 -42 -68 2 -49 41 -145 81 -197 21 -28 23 -36 12 -43 -8 -5 -17 -9 -21
-9 -5 0 -8 -18 -8 -40 0 -49 46 -144 96 -200 34 -38 35 -39 15 -50 -47 -25 -2
-141 91 -237 39 -40 41 -43 25 -61 -9 -10 -17 -25 -17 -33 0 -22 52 -99 94
-138 20 -19 36 -37 36 -40 0 -4 -46 -6 -102 -6 -89 0 -109 -3 -147 -23 l-43
-23 -72 69 c-125 122 -218 164 -232 107 -6 -26 6 -113 29 -200 l14 -50 -54
-53 c-34 -33 -65 -55 -86 -59 -46 -9 -107 -40 -143 -75 -27 -26 -35 -28 -53
-18 -12 6 -34 10 -49 8 -33 -4 -39 -31 -21 -96 l12 -44 -42 -35 c-83 -70 -120
-195 -88 -304 9 -30 18 -81 20 -115 3 -37 14 -79 30 -110 26 -52 99 -127 134
-138 11 -3 30 -28 42 -56 31 -69 99 -134 166 -159 31 -12 62 -21 70 -21 7 0
16 -9 20 -20 3 -10 28 -39 56 -64 49 -44 105 -69 185 -81 l41 -6 -24 -82 c-49
-167 -40 -251 23 -227 40 16 103 62 180 134 64 59 76 66 112 66 23 0 44 -5 47
-10 4 -6 30 -22 58 -37 59 -30 160 -41 219 -25 31 9 43 7 84 -14 26 -13 56
-24 67 -24 16 0 19 -5 14 -27 -3 -16 -11 -74 -18 -129 -14 -113 -8 -134 48
-171 47 -31 92 -21 187 40 47 31 99 63 116 72 16 8 55 36 86 61 49 40 58 44
66 30 22 -39 111 3 188 91 30 33 59 55 85 63 22 7 54 21 71 31 25 15 43 17 95
13 44 -4 81 0 119 11 30 9 69 19 85 22 17 3 36 10 42 15 9 7 16 2 23 -18 22
-60 46 -99 91 -146 47 -49 82 -61 108 -35 10 10 16 7 29 -13 27 -42 99 -108
142 -130 49 -25 76 -25 92 -1 11 17 14 16 57 -17 48 -36 111 -68 195 -96 60
-20 103 -10 141 35 36 43 32 80 -19 198 l-44 101 61 -6 c36 -4 80 -1 103 5 37
10 48 8 100 -16 69 -31 175 -36 236 -10 35 15 41 15 75 0 59 -26 186 -23 247
4 42 20 53 21 93 12 71 -18 172 -7 234 27 49 26 59 28 106 21 69 -11 161 12
223 57 40 29 57 34 116 38 85 4 148 33 207 94 31 32 50 44 72 44 17 1 44 7 60
14 28 12 36 10 115 -30 162 -81 242 -94 248 -42 4 30 -55 155 -109 234 -30 44
-31 47 -13 57 37 21 84 82 105 136 23 62 22 142 -1 196 -7 17 -14 51 -16 77
-6 111 -70 215 -158 258 -27 13 -46 29 -50 44 -17 68 -117 156 -203 179 -37 9
-59 24 -94 62 -43 47 -45 52 -37 84 5 18 8 47 6 65 -4 46 -42 47 -122 3 -85
-47 -96 -48 -141 -8 -61 53 -119 75 -209 78 -62 2 -86 7 -108 23 -15 11 -40
25 -54 31 l-27 10 26 27 c28 29 35 66 16 77 -5 4 18 20 53 37 68 32 142 87
159 120 8 15 8 27 -2 44 -7 13 -10 25 -8 26 2 2 26 14 53 28 63 31 156 119
156 147 0 11 -7 26 -15 33 -14 11 -10 16 26 37 63 36 133 98 154 137 19 34 19
35 0 56 -18 20 -18 22 -3 31 46 26 118 92 146 135 36 54 38 66 17 88 -14 13
-7 23 59 89 87 87 112 142 81 177 -18 19 -17 21 34 75 47 49 101 141 101 172
0 7 -10 21 -21 32 l-22 20 61 65 c86 93 144 194 150 262 4 51 2 56 -31 89 -29
29 -42 35 -78 35 -87 0 -253 -56 -331 -111 l-31 -23 -15 22 c-28 42 -133 16
-238 -59 l-44 -33 -16 22 c-8 12 -23 22 -32 22 -32 0 -141 -59 -186 -100 l-45
-41 -20 20 c-12 12 -26 21 -31 21 -29 0 -110 -50 -165 -102 -54 -50 -64 -56
-75 -43 -31 37 -112 -4 -197 -99 -50 -56 -52 -57 -75 -42 -21 14 -27 14 -53 0
-41 -21 -110 -90 -143 -141 -26 -41 -42 -54 -42 -34 0 17 -31 21 -59 7 -40
-21 -106 -96 -136 -155 -24 -49 -26 -51 -48 -37 -29 19 -57 7 -94 -38 l-28
-36 -5 32 c-3 22 -13 36 -28 43 -12 5 -20 14 -18 20 46 100 59 146 60 204 1
54 -2 65 -19 75 -11 6 -21 11 -22 11 -1 1 9 31 23 69 45 125 42 226 -6 226
-24 0 -24 -6 0 62 25 73 37 187 21 216 -6 12 -21 22 -31 22 -24 0 -24 0 -5 70
17 64 20 182 5 211 -6 10 -21 19 -34 19 l-23 0 14 63 c17 71 13 198 -7 222 -7
8 -23 15 -36 15 -22 0 -24 3 -17 28 12 42 8 183 -6 224 -12 36 -40 56 -61 43
-6 -4 -10 19 -10 62 0 79 -20 171 -45 209 -13 21 -22 25 -44 21 l-28 -6 -6 92
c-7 116 -47 249 -87 289 -24 23 -37 28 -78 28 -34 0 -57 -6 -75 -20z m106 -42
c10 -7 29 -47 44 -88 21 -60 27 -98 30 -190 4 -105 2 -123 -26 -215 -24 -83
-26 -96 -11 -75 11 14 41 54 67 89 26 36 53 66 59 68 20 6 37 -93 31 -176 -4
-62 -13 -94 -51 -176 l-46 -100 80 83 c44 45 84 82 89 82 30 0 24 -183 -8
-254 -10 -23 -37 -72 -60 -110 -23 -37 -41 -70 -39 -71 2 -2 42 30 88 71 47
41 88 74 92 74 15 0 8 -139 -10 -197 -10 -32 -43 -95 -73 -138 -30 -44 -58
-86 -63 -95 -11 -17 -14 -19 84 57 88 68 106 77 114 57 10 -26 -13 -145 -39
-202 -14 -30 -47 -82 -73 -115 -27 -34 -52 -68 -57 -76 -10 -17 -6 -15 98 56
43 29 83 53 89 53 16 0 2 -108 -23 -175 -11 -31 -44 -84 -72 -117 -29 -34 -65
-76 -80 -95 -27 -31 -23 -30 71 27 55 33 105 60 111 60 15 0 14 -34 -3 -95
-24 -89 -42 -121 -127 -216 l-84 -93 97 52 c122 66 128 66 117 5 -18 -94 -62
-167 -156 -258 l-88 -85 98 45 c54 25 105 45 113 45 37 0 -9 -124 -70 -190
-55 -59 -95 -119 -138 -205 -65 -130 -126 -320 -113 -353 9 -24 20 -5 50 88
37 113 93 234 143 306 44 64 98 121 108 112 3 -4 18 -48 34 -100 16 -51 29
-91 30 -88 1 3 5 59 9 126 6 108 10 127 38 185 18 35 44 78 57 94 32 38 38 30
60 -84 26 -133 29 -134 42 -18 10 81 20 124 42 170 31 65 105 157 117 145 4
-4 13 -55 20 -113 7 -59 15 -108 17 -110 2 -2 12 37 22 88 24 120 58 190 124
256 65 66 72 61 72 -59 0 -142 9 -146 44 -23 36 124 72 184 149 244 46 37 52
39 58 22 6 -17 3 -117 -6 -192 -6 -51 8 -27 49 79 26 68 50 111 82 148 40 46
116 102 139 102 7 0 4 -50 -11 -185 l-5 -50 50 100 c55 113 113 175 200 219
l51 26 0 -24 c0 -14 -9 -64 -20 -111 -11 -47 -20 -91 -20 -98 0 -7 21 24 46
68 59 101 123 168 198 205 66 34 86 37 86 15 0 -8 -16 -60 -34 -115 -19 -55
-33 -100 -31 -100 1 0 33 40 69 89 41 55 86 103 119 125 72 49 199 97 273 104
58 4 63 3 79 -22 16 -24 16 -28 1 -68 -26 -64 -80 -140 -159 -221 -58 -60 -91
-84 -166 -121 -51 -26 -91 -49 -90 -50 2 -2 55 5 117 16 62 11 115 18 118 15
18 -18 -62 -129 -127 -177 -22 -16 -83 -45 -135 -66 -51 -21 -93 -39 -91 -40
2 -2 52 1 111 6 142 12 150 8 94 -60 -60 -73 -125 -116 -227 -146 -47 -14 -95
-29 -106 -32 -11 -4 34 -9 99 -12 73 -3 121 -9 123 -16 6 -17 -88 -106 -143
-136 -27 -14 -94 -36 -149 -48 -54 -11 -101 -22 -102 -24 -2 -1 49 -8 113 -14
64 -6 119 -14 122 -17 3 -3 -14 -26 -39 -51 -62 -64 -143 -100 -267 -120 -56
-10 -101 -18 -99 -20 1 -2 50 -10 107 -19 58 -9 110 -21 115 -27 14 -14 -56
-72 -130 -108 -47 -22 -85 -31 -170 -40 -60 -6 -111 -12 -112 -14 -2 -2 44
-13 101 -26 133 -29 140 -33 101 -66 -82 -69 -177 -97 -360 -106 l-50 -3 85
-23 c111 -30 142 -42 137 -56 -5 -18 -107 -75 -161 -91 -30 -9 -93 -15 -160
-15 l-111 0 95 -34 c125 -45 130 -47 130 -57 0 -4 -35 -25 -77 -46 l-77 -38
-146 2 -145 1 95 -39 c133 -56 137 -62 66 -95 -98 -45 -167 -51 -293 -27 -59
12 -109 20 -110 19 -2 -1 42 -26 98 -56 55 -29 98 -58 96 -64 -2 -6 -26 -19
-53 -29 -88 -34 -186 -49 -307 -49 -85 1 -117 -3 -114 -11 7 -21 80 -29 217
-24 137 5 199 18 288 59 34 16 55 19 99 15 30 -3 58 -9 62 -12 3 -4 -33 -45
-81 -91 -48 -46 -85 -84 -83 -84 2 0 48 21 102 47 87 41 107 47 183 51 49 2
104 -1 128 -8 43 -11 44 -12 26 -31 -10 -11 -51 -45 -91 -76 -40 -31 -72 -57
-70 -59 2 -2 47 12 101 31 77 28 112 35 170 35 73 0 176 -23 176 -39 0 -5 -46
-39 -102 -76 -57 -37 -94 -64 -83 -62 11 3 56 15 100 27 61 17 97 21 155 17
80 -5 181 -34 188 -54 2 -7 -42 -36 -105 -68 -59 -30 -99 -53 -88 -51 70 16
204 27 250 21 57 -7 298 -121 323 -153 17 -23 15 -56 -5 -75 -25 -22 -261 -62
-358 -61 -72 1 -89 6 -168 43 -49 22 -93 41 -98 41 -5 0 10 -17 33 -37 24 -20
64 -57 91 -82 57 -55 52 -59 -70 -60 -100 -1 -147 15 -253 87 -41 28 -76 49
-78 47 -2 -2 28 -43 67 -90 39 -48 71 -91 71 -96 0 -16 -106 -10 -171 11 -62
19 -97 43 -209 139 l-51 44 32 -54 c61 -101 91 -160 85 -166 -10 -11 -115 16
-172 44 -52 25 -106 77 -203 193 -16 19 -12 4 15 -60 44 -103 59 -148 52 -155
-8 -8 -117 34 -153 58 -55 37 -95 80 -146 159 -28 43 -53 78 -55 78 -1 0 3
-21 11 -47 20 -68 45 -166 45 -176 0 -17 -54 4 -100 38 -25 18 -83 74 -129
125 -94 103 -187 181 -278 234 -59 35 -93 45 -93 28 0 -5 33 -30 73 -57 97
-66 254 -226 292 -297 16 -31 27 -60 23 -63 -4 -4 -55 -2 -113 5 -59 6 -109 9
-111 7 -2 -2 41 -23 96 -46 85 -37 108 -52 154 -102 49 -52 86 -122 73 -136
-3 -2 -51 7 -107 22 -56 14 -104 24 -106 22 -2 -2 36 -30 85 -61 102 -66 135
-106 186 -226 42 -98 44 -124 10 -146 -25 -16 -29 -16 -98 11 -142 54 -190
100 -249 236 -23 54 -44 97 -46 95 -1 -2 2 -41 8 -87 5 -46 10 -101 10 -121
l0 -39 -28 15 c-38 20 -120 109 -136 149 -8 17 -22 77 -32 132 -10 55 -19 93
-21 85 -1 -8 -9 -60 -17 -114 -8 -54 -19 -103 -24 -108 -11 -11 -59 47 -93
112 -22 41 -24 58 -24 178 0 72 0 132 -1 132 -1 0 -20 -49 -44 -110 -23 -60
-46 -110 -51 -110 -27 0 -67 107 -76 202 l-6 69 -21 -31 c-12 -16 -24 -30 -28
-30 -22 0 -66 156 -75 267 -4 64 -9 83 -21 83 -13 0 -14 -19 -7 -137 13 -226
11 -272 -13 -334 -26 -67 -91 -147 -103 -128 -4 7 -16 55 -25 106 -10 51 -21
93 -24 93 -3 0 -11 -43 -18 -96 -7 -65 -19 -114 -36 -149 -27 -54 -106 -143
-146 -165 l-23 -12 6 128 6 129 -41 -103 c-45 -115 -98 -184 -177 -230 -25
-14 -84 -50 -130 -79 -46 -29 -90 -53 -96 -53 -7 0 -23 8 -36 19 -23 19 -23
19 -10 122 20 167 53 223 179 309 45 30 81 58 82 61 0 3 -46 -10 -102 -28 -57
-19 -111 -32 -120 -31 -16 3 -16 8 7 55 42 90 102 145 215 194 55 24 97 45 95
47 -2 2 -41 -1 -86 -7 -45 -6 -99 -11 -119 -11 -36 0 -36 0 -34 39 3 55 49
135 119 207 45 46 82 72 149 103 63 31 85 46 78 53 -15 15 -136 -30 -207 -78
-31 -20 -77 -62 -103 -92 -91 -108 -118 -130 -188 -152 -36 -11 -91 -20 -120
-20 -65 0 -65 -2 24 110 33 41 59 76 57 78 -1 2 -44 -24 -94 -57 -58 -38 -109
-63 -141 -70 -89 -19 -210 -11 -210 13 0 7 38 43 84 81 47 38 84 71 82 72 -1
1 -42 -14 -92 -34 -81 -34 -98 -37 -184 -37 -78 0 -104 4 -148 23 -38 17 -50
27 -42 35 5 5 54 32 108 58 83 42 91 48 57 43 -140 -18 -212 -17 -314 4 -150
32 -172 47 -157 105 6 25 89 70 197 106 35 12 73 27 84 33 11 7 76 14 145 17
l125 5 -100 32 c-126 41 -137 48 -110 69 81 64 214 79 344 40 47 -14 89 -26
95 -26 6 0 -32 28 -83 63 -52 34 -96 67 -98 74 -7 19 68 37 155 37 81 0 86 -2
183 -52 55 -29 103 -52 106 -52 4 0 -31 39 -78 87 -73 75 -81 87 -64 93 11 3
38 15 60 25 53 24 170 26 246 2 32 -9 80 -33 109 -52 57 -38 70 -42 70 -21 0
21 -102 92 -169 117 -39 15 -92 24 -179 29 -108 7 -131 12 -185 38 -34 17 -80
49 -101 71 -39 39 -39 40 -15 45 19 5 150 21 214 27 6 0 -36 11 -93 25 -126
29 -189 62 -253 132 -75 82 -71 86 69 79 74 -4 110 -3 97 3 -11 5 -57 25 -103
44 -45 19 -100 49 -122 66 -36 29 -120 141 -120 161 0 14 56 10 153 -10 48
-10 87 -17 87 -15 0 2 -43 26 -95 54 -65 35 -109 68 -141 103 -43 48 -94 136
-94 163 0 14 54 4 150 -26 36 -11 69 -20 75 -20 5 0 -26 24 -70 54 -122 81
-187 163 -220 274 -9 32 15 29 125 -13 50 -19 94 -35 97 -35 2 0 -34 32 -81
70 -82 68 -127 121 -155 185 -21 47 -40 113 -34 119 5 5 53 -13 158 -59 l60
-26 -86 84 c-98 96 -141 169 -163 282 -26 130 -26 164 -2 192 28 32 49 28 134
-26 145 -94 196 -164 257 -353 l42 -133 -5 148 c-3 104 -2 147 6 147 22 0 138
-119 163 -167 14 -26 37 -85 50 -130 13 -46 27 -83 32 -83 4 0 7 52 7 115 0
63 4 115 8 115 19 0 98 -79 133 -133 29 -44 44 -85 61 -158 12 -54 25 -99 29
-99 3 0 9 48 12 107 3 58 10 110 15 115 13 13 106 -92 136 -155 15 -29 33 -96
42 -155 10 -56 19 -101 20 -99 2 2 10 50 19 107 9 58 20 109 26 115 15 14 71
-54 111 -133 26 -53 31 -76 36 -160 6 -122 15 -140 32 -65 11 50 14 55 20 33
5 -14 20 -65 35 -115 41 -138 138 -314 173 -315 19 0 14 16 -22 73 -69 107
-116 256 -136 422 -13 115 -13 115 4 115 8 0 55 -27 105 -60 50 -33 91 -57 91
-54 0 3 -30 42 -67 87 -84 104 -105 151 -111 251 l-5 78 24 -12 c13 -7 53 -36
89 -64 96 -77 97 -76 32 21 -64 95 -85 146 -97 230 -7 54 1 113 14 113 5 0 45
-34 90 -75 44 -41 84 -75 87 -75 3 0 -9 24 -26 53 -64 107 -92 176 -97 242 -6
73 3 135 19 135 7 0 47 -37 90 -82 74 -78 77 -81 62 -43 -9 22 -29 65 -44 96
-47 92 -56 174 -33 292 l5 29 30 -29 c16 -15 53 -56 81 -90 28 -35 52 -61 54
-59 2 1 -15 48 -38 102 -38 89 -42 107 -43 184 0 47 6 102 13 123 13 38 13 38
33 20 11 -10 45 -53 76 -95 30 -43 57 -77 59 -75 1 2 -14 50 -33 108 -34 96
-36 110 -31 189 6 92 22 153 41 147 6 -1 39 -46 73 -98 35 -51 63 -91 63 -87
0 4 -11 49 -25 100 -14 51 -25 121 -25 154 0 71 35 197 53 192 7 -3 37 -48 67
-100 30 -53 56 -95 57 -94 2 1 -7 53 -19 114 -25 126 -20 195 21 287 27 60 32
56 96 -70 44 -88 45 -89 40 -45 -24 202 -14 279 51 416 51 109 83 134 127 102z
m-2536 -3479 c55 -43 150 -140 199 -204 l28 -37 -29 -22 c-17 -11 -39 -30 -50
-41 -18 -18 -66 -45 -81 -45 -11 0 -83 169 -102 240 -25 94 -35 150 -26 150 4
0 31 -19 61 -41z m525 -91 c-7 -7 -12 -25 -12 -41 0 -37 75 -111 159 -156 61
-32 62 -34 39 -45 -13 -6 -24 -22 -26 -36 -3 -24 -6 -25 -80 -26 -141 -2 -232
-43 -218 -99 6 -22 3 -25 -18 -25 -42 0 -150 -38 -199 -71 -50 -33 -68 -69
-49 -99 9 -14 1 -20 -55 -41 -157 -58 -227 -94 -250 -128 -29 -43 -29 -89 -1
-131 26 -38 61 -52 193 -79 88 -18 90 -19 87 -45 -2 -15 2 -34 9 -42 33 -40
164 -84 249 -84 36 0 40 -3 40 -24 0 -36 23 -53 88 -67 55 -11 179 -8 215 6
13 6 17 2 17 -19 0 -16 8 -30 22 -37 32 -17 182 -6 245 19 29 11 54 18 57 15
2 -3 2 -20 -1 -38 -4 -26 -1 -36 15 -46 20 -12 20 -14 -13 -53 -40 -51 -81
-131 -90 -178 -7 -35 7 -60 36 -70 18 -6 -8 -48 -30 -48 -10 0 -46 14 -80 31
-55 28 -65 30 -91 19 -74 -31 -205 -4 -259 54 -15 16 -29 22 -44 18 l-21 -5
22 34 c20 32 25 34 76 34 59 0 80 12 74 41 -3 15 -11 18 -40 16 -44 -3 -111
28 -133 62 -11 16 -29 26 -57 30 -41 7 -86 44 -130 107 -15 22 -18 23 -33 8
-15 -14 -15 -22 -5 -50 11 -31 9 -41 -20 -101 -31 -66 -33 -68 -70 -68 -81 0
-169 49 -217 121 -15 24 -36 42 -52 45 -100 21 -190 95 -211 173 -8 30 -18 42
-49 56 -49 22 -105 79 -126 127 -8 21 -15 65 -15 98 0 37 -6 74 -16 93 -20 38
-21 121 -1 168 17 42 64 99 81 99 7 0 21 -17 30 -39 10 -21 31 -58 46 -81 27
-41 27 -43 12 -81 -14 -36 -14 -41 1 -56 20 -20 47 -10 47 18 0 11 16 35 35
53 60 54 66 60 83 84 9 12 35 29 57 36 47 17 56 49 15 54 -14 2 -50 27 -80 56
-30 29 -72 66 -92 84 l-37 31 31 26 c39 33 92 55 133 55 26 0 37 7 58 38 50
71 59 70 101 -18 l38 -79 -22 -28 c-11 -16 -22 -42 -23 -58 -2 -24 2 -31 20
-33 17 -3 25 4 36 31 18 41 57 74 108 87 23 6 46 22 58 39 26 37 78 61 130 61
28 0 44 5 47 15 9 22 -14 45 -46 45 -21 0 -37 12 -66 46 -35 44 -36 48 -19 60
37 27 120 36 182 21 54 -14 59 -14 82 4 26 21 42 26 23 7z m3463 -57 c22 -10
54 -29 70 -43 26 -22 36 -24 75 -19 87 13 199 -27 235 -83 15 -23 13 -26 -69
-109 -83 -85 -84 -86 -119 -76 -44 12 -90 -3 -85 -28 2 -13 17 -20 51 -25 52
-7 112 -45 122 -78 4 -12 21 -24 48 -31 49 -13 90 -48 108 -93 15 -36 27 -46
47 -39 10 5 13 17 9 45 -5 34 2 55 48 141 29 56 61 123 70 150 17 46 18 47 37
30 11 -10 26 -30 34 -44 10 -20 23 -28 55 -32 91 -12 191 -94 206 -170 4 -22
15 -33 42 -44 97 -40 155 -120 157 -218 1 -35 8 -74 18 -93 39 -75 12 -188
-59 -250 l-38 -34 -47 47 -47 46 16 45 c18 49 8 79 -25 79 -14 0 -20 -10 -25
-38 -7 -45 -34 -84 -78 -114 -18 -12 -42 -41 -54 -65 -19 -38 -75 -88 -98 -88
-5 0 3 17 17 38 32 47 29 112 -7 147 -35 34 -271 154 -319 161 -39 6 -40 8
-34 39 5 27 1 36 -21 53 -31 25 -131 59 -198 68 -42 6 -48 10 -43 27 3 11 1
28 -4 37 -16 29 -108 62 -192 68 -77 5 -78 5 -78 32 0 15 -6 32 -12 38 -27 21
-125 42 -199 42 -69 0 -77 2 -72 18 7 29 -29 52 -103 66 l-69 13 43 7 c56 10
173 69 190 96 9 15 10 26 2 40 -11 21 -10 23 45 40 108 34 204 103 190 137 -3
7 -8 20 -11 28 -4 10 0 15 12 16 11 0 37 9 59 19 50 23 52 23 100 1z m599
-138 c-18 -76 -118 -303 -150 -342 -2 -2 -22 8 -44 23 -22 14 -46 26 -53 26
-7 0 -26 13 -41 29 l-27 28 38 45 c65 75 244 218 274 218 5 0 6 -12 3 -27z
m-4960 -181 c28 -22 73 -60 99 -86 l48 -47 -32 -37 c-55 -64 -56 -64 -102 19
-29 53 -80 189 -70 189 3 0 29 -17 57 -38z m5365 -854 c60 -73 143 -203 155
-245 7 -22 6 -22 -31 -9 -61 22 -180 84 -254 133 l-68 45 34 46 c19 25 35 50
35 56 0 11 47 45 62 46 4 0 34 -33 67 -72z m-337 -90 c3 -20 9 -23 48 -23 34
0 54 -7 84 -29 33 -26 36 -31 20 -37 -11 -4 -31 -8 -46 -8 -19 -1 -40 -15 -70
-48 -56 -60 -115 -86 -198 -87 -59 -1 -70 -4 -105 -33 -68 -56 -169 -78 -243
-52 -27 9 -35 7 -72 -20 -71 -51 -179 -62 -253 -24 -25 12 -31 12 -55 -5 -69
-48 -180 -57 -254 -19 -46 23 -46 23 -83 4 -78 -40 -197 -30 -264 22 -22 17
-28 17 -57 5 -35 -15 -101 -18 -151 -8 -27 5 -30 10 -30 43 0 49 -35 125 -85
184 -22 27 -39 49 -37 50 2 2 12 9 21 16 15 11 23 10 50 -7 68 -41 148 -45
148 -7 0 20 1 20 62 -20 62 -41 177 -80 213 -71 13 3 27 15 30 27 5 14 12 18
23 13 171 -73 292 -82 292 -23 0 16 4 19 18 14 43 -16 142 -35 189 -35 70 0
103 14 103 42 0 23 1 23 123 23 141 0 180 12 185 58 3 25 7 27 47 27 23 0 90
9 146 20 195 36 197 36 201 8z m-4321 -73 c24 -14 51 -25 60 -25 8 0 26 -11
39 -25 l23 -24 -25 -38 c-63 -95 -260 -273 -266 -242 -5 26 45 202 83 292 20
48 38 87 40 87 2 0 23 -11 46 -25z m1630 -68 c6 -23 20 -59 30 -79 10 -20 19
-39 19 -42 0 -3 -17 -10 -37 -15 -44 -12 -146 -15 -141 -3 54 109 69 142 74
169 5 28 9 31 25 23 10 -6 23 -29 30 -53z"/>
<path d="M2801 3009 c-52 -71 -63 -186 -27 -271 6 -13 2 -19 -18 -24 -14 -3
-26 -10 -26 -14 0 -4 29 -22 64 -39 39 -19 81 -50 104 -76 45 -51 52 -54 52
-22 0 21 3 22 74 19 57 -3 85 1 118 16 103 45 160 130 166 247 3 63 0 76 -30
135 -27 54 -37 65 -58 65 -34 0 -36 -25 -7 -72 49 -75 48 -79 -39 -87 -97 -8
-233 -8 -301 0 -62 8 -64 15 -27 85 44 80 8 111 -45 38z m100 -219 c10 -47 59
-90 104 -90 66 0 105 32 119 98 8 32 8 32 68 32 l61 0 -7 -32 c-15 -77 -97
-150 -184 -164 -88 -14 -194 45 -233 130 -28 61 -25 68 23 64 39 -3 43 -5 49
-38z"/>
<path d="M3567 3021 c-60 -72 -73 -202 -28 -289 51 -100 138 -152 255 -152 67
0 74 -2 79 -21 5 -19 11 -16 58 31 31 31 78 65 114 81 l60 28 -32 11 c-18 7
-33 13 -33 13 0 1 7 20 15 42 25 71 19 145 -18 217 -27 51 -37 63 -57 63 -34
0 -36 -26 -7 -72 14 -21 28 -47 31 -59 6 -19 1 -22 -46 -27 -69 -9 -238 -9
-317 0 l-63 6 6 29 c3 16 15 43 27 59 40 57 1 93 -44 40z m93 -215 c0 -36 41
-89 78 -100 72 -20 152 33 152 100 0 23 4 24 61 24 l62 0 -7 -31 c-17 -86
-123 -169 -216 -169 -79 0 -167 59 -201 135 -27 59 -25 65 26 65 41 0 45 -2
45 -24z"/>
<path d="M3367 2773 c-4 -3 -7 -23 -7 -44 0 -51 -8 -69 -32 -69 -10 0 -32 -7
-48 -15 -56 -29 -66 -86 -24 -129 43 -42 139 -61 164 -31 19 23 -3 41 -59 49
-57 7 -80 28 -61 51 16 20 96 20 134 0 32 -17 56 -19 56 -6 0 11 -67 71 -80
71 -6 0 -10 22 -10 49 0 68 -12 95 -33 74z"/>
<path d="M3787 2513 c-4 -3 -7 -16 -7 -28 0 -18 -11 -25 -72 -44 -40 -12 -117
-27 -171 -33 -162 -19 -402 13 -511 69 -51 26 -52 -1 -2 -43 31 -26 56 -60 79
-108 48 -101 112 -168 205 -213 54 -27 89 -38 122 -38 103 0 271 123 360 263
38 60 49 72 73 72 25 0 27 2 16 23 -13 25 -69 87 -79 87 -4 0 -10 -3 -13 -7z
m-168 -239 c17 -4 31 -9 31 -13 -1 -13 -102 -83 -156 -108 -58 -26 -58 -26
-106 -9 -27 9 -65 27 -85 38 l-36 22 27 23 c20 17 39 23 72 23 l44 0 -16 -25
c-15 -23 -12 -45 6 -45 4 0 17 15 28 33 32 56 103 78 191 61z"/>
</g>
</svg>
